<?xml version="1.0" standalone="no"?>
<!DOCTYPE svg PUBLIC "-//W3C//DTD SVG 20010904//EN"
 "http://www.w3.org/TR/2001/REC-SVG-20010904/DTD/svg10.dtd">
<svg version="1.0" xmlns="http://www.w3.org/2000/svg"
 width="50.000000pt" height="50.000000pt" viewBox="0 0 50.000000 50.000000"
 preserveAspectRatio="xMidYMid meet">

<g transform="translate(0.000000,50.000000) scale(0.100000,-0.100000)"
fill="#fff" stroke="none">
<path d="M155 456 c-60 -28 -87 -56 -114 -116 -36 -79 -19 -183 42 -249 33
-36 115 -71 167 -71 52 0 134 35 167 71 34 37 63 110 63 159 0 52 -35 134 -71
167 -37 34 -110 63 -159 63 -27 0 -65 -10 -95 -24z m112 -13 c-16 -16 -18 -16
-34 0 -16 16 -15 17 17 17 32 0 33 -1 17 -17z m-56 -10 c22 -13 29 -25 29 -49
0 -26 -8 -36 -42 -60 -60 -40 -98 -31 -112 27 -6 26 22 61 69 87 26 14 22 15
56 -5z m137 3 c15 -8 37 -25 49 -38 29 -30 19 -77 -20 -96 -23 -11 -30 -9 -71
20 -38 26 -46 37 -46 63 0 22 7 35 28 47 33 21 28 21 60 4z m-289 -142 c-17
-21 -21 -11 -8 22 10 23 13 25 16 11 3 -10 -1 -25 -8 -33z m393 11 c4 -20 3
-23 -8 -14 -15 12 -20 54 -5 45 5 -3 11 -17 13 -31z m-153 -4 l34 -28 -15 -44
-15 -44 -53 0 -53 0 -15 44 -15 44 34 28 c19 16 41 28 49 28 8 0 30 -12 49
-28z m-176 -20 c18 -7 30 -24 42 -60 16 -48 15 -52 -2 -76 -12 -17 -24 -23
-38 -20 -11 3 -27 5 -36 5 -16 0 -32 30 -45 83 -5 21 -1 34 17 53 25 27 28 28
62 15z m316 -15 c41 -43 8 -128 -54 -140 -24 -5 -34 -1 -48 19 -17 24 -18 28
-2 76 16 47 36 66 71 68 6 1 21 -10 33 -23z m-117 -130 c14 -20 15 -29 5 -55
-13 -35 -52 -48 -110 -37 -44 8 -65 56 -39 92 14 20 26 23 72 23 46 0 58 -3
72 -23z m-182 -36 c4 0 10 -9 13 -20 4 -16 2 -18 -12 -10 -10 5 -24 17 -32 26
-12 16 -12 17 4 11 10 -4 22 -7 27 -7z m250 -6 c-8 -8 -21 -19 -31 -24 -14 -8
-16 -6 -12 10 3 10 15 21 27 23 11 2 23 5 25 6 2 0 -2 -6 -9 -15z"/>
</g>
</svg>
